<svg width="400" height="400" viewBox="0 0 400 400" fill="none" xmlns="http://www.w3.org/2000/svg">
<rect width="400" height="400" rx="200" fill="white"/>
<path d="M258.508 156.35C253.968 158.375 244.712 159.475 242.666 159.875C237.601 160.85 232.511 161.85 227.397 162.526C216.943 163.876 207.687 166.176 198.181 170.952C185.607 177.303 172.409 189.129 170.138 203.781C168.018 217.558 173.606 233.236 188.775 236.686C197.882 238.761 209.134 236.086 215.721 229.26C217.716 227.185 219.164 224.659 220.96 222.434C222.981 219.909 225.6 217.783 228.594 216.533C231.987 215.108 235.904 214.533 239.547 214.233C244.412 213.833 249.302 213.133 254.117 212.233C267.216 209.857 279.915 205.207 291.317 198.306C301.596 192.08 311.9 185.054 319.235 175.377C326.645 165.651 328.89 153.274 325.372 141.522C320.233 124.32 306.211 109.068 292.789 97.7163C274.775 82.4641 252.82 72.1126 229.592 68.0371C222.457 66.7869 215.222 66.1118 207.986 66.0118C134.287 65.0366 73.0363 124.72 72.0134 198.581C70.9655 273.741 131.442 335 206.19 335C255.964 335 299.425 307.821 322.578 267.49C333.381 248.663 322.129 224.834 300.697 221.584L299.949 221.459C287.449 219.559 274.875 225.309 268.588 236.311C255.514 259.189 230.291 274.166 201.724 272.466C200.077 272.366 198.431 272.216 196.809 271.991C193.291 271.541 189.724 272.191 186.555 273.741L160.982 286.093C158.512 287.293 155.743 285.168 156.242 282.443L160.408 259.989C160.807 257.889 160.059 255.739 158.487 254.314C144.316 241.662 135.135 223.509 134.361 203.381C132.79 162.275 165.573 128.471 206.215 128.471C216.868 128.471 227.497 130.846 237.127 135.447C241.842 137.697 246.308 140.472 250.45 143.698C253.069 145.748 255.839 147.673 258.159 150.099C258.933 150.899 261.028 152.799 261.028 154.024C261.028 154.874 260.03 155.674 258.508 156.35Z" fill="#30237B"/>
</svg>
