<svg width="223" height="36" viewBox="0 0 223 36" fill="none" xmlns="http://www.w3.org/2000/svg">
<path d="M24.396 11.7978C23.802 12.0623 22.5913 12.206 22.3237 12.2582C21.6612 12.3855 20.9955 12.5161 20.3265 12.6043C18.9591 12.7806 17.7483 13.081 16.505 13.7046C14.8602 14.5339 13.1338 16.0782 12.8369 17.9915C12.5595 19.7905 13.2905 21.8376 15.2747 22.2882C16.4658 22.5591 17.9376 22.2098 18.7992 21.3185C19.0602 21.0475 19.2495 20.7177 19.4845 20.4271C19.7488 20.0974 20.0915 19.8198 20.4831 19.6566C20.9269 19.4705 21.4393 19.3954 21.9158 19.3562C22.5521 19.304 23.1918 19.2126 23.8216 19.095C25.5349 18.7849 27.196 18.1776 28.6874 17.2764C30.0319 16.4635 31.3797 15.546 32.3392 14.2825C33.3084 13.0124 33.6021 11.3962 33.142 9.86171C32.4697 7.61542 30.6357 5.6238 28.8799 4.14151C26.5237 2.14988 23.6519 0.798188 20.6137 0.265999C19.6803 0.102751 18.7339 0.0145983 17.7875 0.00153841C8.14731 -0.125795 0.135556 7.66766 0.00175466 17.3124C-0.13531 27.1268 7.77527 35.126 17.5525 35.126C24.0631 35.126 29.748 31.577 32.7765 26.3106C34.1896 23.8521 32.7178 20.7406 29.9145 20.3161L29.8166 20.2998C28.1816 20.0517 26.5368 20.8026 25.7144 22.2392C24.0044 25.2266 20.705 27.1823 16.9684 26.9603C16.753 26.9472 16.5376 26.9277 16.3255 26.8983C15.8653 26.8395 15.3987 26.9244 14.9842 27.1268L11.6392 28.7397C11.3161 28.8964 10.9539 28.6189 11.0191 28.263L11.5641 25.3311C11.6163 25.0568 11.5184 24.7761 11.3128 24.59C9.45921 22.9379 8.25826 20.5675 8.15709 17.9392C7.9515 12.5716 12.2397 8.15741 17.5558 8.15741C18.9493 8.15741 20.3395 8.46758 21.5992 9.06833C22.216 9.36218 22.8002 9.72458 23.3419 10.1458C23.6845 10.4135 24.0468 10.6649 24.3503 10.9816C24.4515 11.0861 24.7256 11.3342 24.7256 11.4942C24.7256 11.6052 24.595 11.7097 24.396 11.7978Z" fill="white"/>
<path d="M59.8207 10.8994C58.5846 10.1633 57.1362 9.79688 55.4756 9.79688C53.8149 9.79688 52.3631 10.1598 51.1168 10.8857C49.8704 11.6116 48.9083 12.5943 48.2303 13.8304C47.5524 15.0665 47.21 16.4292 47.21 17.9187C47.21 19.4458 47.5626 20.8291 48.2714 22.0652C48.9802 23.3013 49.9971 24.2737 51.3291 24.979C52.661 25.6878 54.2292 26.0405 56.0405 26.0405C57.53 26.0405 58.838 25.8179 59.9611 25.3762C61.0842 24.9311 61.9744 24.3627 62.6352 23.6642L60.6253 21.2023C59.9645 21.7878 59.2763 22.2158 58.5606 22.4898C57.845 22.7637 57.013 22.9007 56.0714 22.9007C54.712 22.9007 53.5821 22.5754 52.6747 21.9248C51.7674 21.2742 51.1853 20.384 50.9182 19.2506H63.5426C63.6179 18.8911 63.6556 18.4973 63.6556 18.0625C63.6556 16.5354 63.3269 15.1418 62.6661 13.8886C62.0052 12.632 61.0568 11.6356 59.8207 10.8994ZM50.9216 16.5319C51.1853 15.4191 51.7194 14.546 52.5206 13.9126C53.3219 13.2791 54.308 12.9641 55.479 12.9641C56.6877 12.9641 57.6978 13.2894 58.5059 13.9399C59.3174 14.5905 59.8275 15.4534 60.033 16.5285H50.9216V16.5319Z" fill="white"/>
<path d="M77.9492 10.5331C76.9871 10.0434 75.8845 9.79688 74.6382 9.79688C73.6555 9.79688 72.7105 9.96807 71.7928 10.3071C70.8786 10.646 70.1185 11.1836 69.5158 11.9198V10.1632H66.0918V25.6741H69.7144V16.6449C69.7144 15.6075 70.0979 14.7686 70.8615 14.1249C71.625 13.4846 72.6214 13.1627 73.8472 13.1627C74.9977 13.1627 75.8811 13.4537 76.494 14.0393C77.1069 14.6248 77.4151 15.4534 77.4151 16.5285V25.6707H81.0103V15.7924C81.0103 14.5837 80.7398 13.5291 80.2022 12.6217C79.6612 11.7212 78.9114 11.0227 77.9492 10.5331Z" fill="white"/>
<path d="M96.6296 12.091C95.3285 10.5639 93.5822 9.79688 91.3942 9.79688C89.8671 9.79688 88.5078 10.1324 87.3196 10.8001C86.1315 11.4712 85.207 12.3854 84.5462 13.5462C83.8853 14.7069 83.5566 15.9944 83.5566 17.4085C83.5566 18.8226 83.8853 20.1032 84.5462 21.2434C85.207 22.3836 86.1315 23.2807 87.3196 23.9313C88.5078 24.5819 89.8671 24.9071 91.3942 24.9071C93.5274 24.9071 95.2257 24.2189 96.4892 22.8424V24.0614C96.4892 25.2872 96.0235 26.2288 95.0888 26.8896C94.154 27.5505 92.9522 27.8792 91.4798 27.8792C90.4424 27.8792 89.5145 27.7662 88.6927 27.5402C87.8709 27.3142 87.0183 26.9924 86.1315 26.5781L84.8852 29.6049C86.943 30.567 89.2063 31.0498 91.6784 31.0498C93.3014 31.0498 94.743 30.7657 96.0098 30.2007C97.2733 29.6357 98.2629 28.8277 98.9819 27.7799C99.6975 26.7321 100.057 25.52 100.057 24.1436V10.1632H96.633V12.091H96.6296ZM95.2018 20.5792C94.3047 21.3701 93.1782 21.7673 91.8188 21.7673C90.48 21.7673 89.3706 21.3667 88.4941 20.5655C87.6175 19.7642 87.1793 18.713 87.1793 17.4085C87.1793 16.5422 87.3813 15.7718 87.7887 15.1007C88.1928 14.4296 88.7509 13.9126 89.4597 13.5428C90.1684 13.173 90.956 12.9915 91.8223 12.9915C93.1816 12.9915 94.3081 13.399 95.2052 14.2105C96.1023 15.022 96.5508 16.0868 96.5508 17.4085C96.544 18.7302 96.0954 19.7882 95.2018 20.5792Z" fill="white"/>
<path d="M107.355 21.345V4.39258H103.732V22.0811C103.732 23.2693 104.109 24.2075 104.866 24.8957C105.619 25.5839 106.629 25.9297 107.893 25.9297C108.721 25.9297 109.43 25.8168 110.016 25.5908V22.4201C109.543 22.5913 109.129 22.6735 108.769 22.6735C107.824 22.6735 107.355 22.2318 107.355 21.345Z" fill="white"/>
<path d="M116.016 10.1641H112.394V25.6749H116.016V10.1641Z" fill="white"/>
<path d="M114.205 4.07617C113.564 4.07617 113.034 4.27477 112.619 4.67196C112.205 5.06915 111.996 5.56906 111.996 6.17169C111.996 6.79486 112.205 7.30504 112.619 7.6988C113.034 8.09599 113.561 8.29458 114.205 8.29458C114.845 8.29458 115.376 8.09599 115.79 7.6988C116.204 7.30162 116.413 6.79486 116.413 6.17169C116.413 5.56906 116.204 5.06915 115.79 4.67196C115.372 4.27477 114.845 4.07617 114.205 4.07617Z" fill="white"/>
<path d="M128.551 16.4463L125.014 15.8505C124.24 15.717 123.689 15.5492 123.357 15.3403C123.028 15.1315 122.86 14.8507 122.86 14.4912C122.86 14.0015 123.161 13.6009 123.764 13.2893C124.367 12.9778 125.123 12.8237 126.027 12.8237C126.972 12.8237 127.91 12.9778 128.845 13.2893C129.78 13.6009 130.574 13.9913 131.235 14.4638L133.047 11.8889C132.047 11.1527 130.941 10.6254 129.735 10.3036C128.527 9.98171 127.328 9.82422 126.14 9.82422C123.99 9.82422 122.292 10.2762 121.045 11.1835C119.799 12.0875 119.179 13.2962 119.179 14.8062C119.179 15.919 119.576 16.8538 120.367 17.607C121.158 18.3603 122.367 18.8808 123.99 19.165L127.897 19.8429C129.047 20.0141 129.622 20.4558 129.622 21.1749C129.622 21.7022 129.328 22.137 128.746 22.476C128.16 22.815 127.407 22.9862 126.483 22.9862C125.274 22.9862 124.151 22.8082 123.113 22.4486C122.076 22.0891 121.179 21.6097 120.426 21.0037L118.642 23.6916C119.528 24.4072 120.682 24.9756 122.11 25.3899C123.535 25.8042 124.973 26.013 126.424 26.013C127.763 26.013 128.958 25.8008 130.006 25.3762C131.054 24.9516 131.865 24.349 132.44 23.5649C133.016 22.7808 133.303 21.8802 133.303 20.8633C133.303 19.7128 132.91 18.7609 132.129 18.0042C131.348 17.2475 130.157 16.7271 128.551 16.4463Z" fill="white"/>
<path d="M147.77 10.5275C146.807 10.0379 145.705 9.79132 144.459 9.79132C143.513 9.79132 142.613 9.95224 141.757 10.2741C140.898 10.596 140.158 11.1027 139.535 11.8012V4.38477H135.912V25.6686H139.535V16.6702C139.535 15.6327 139.918 14.787 140.682 14.1364C141.445 13.4858 142.442 13.1606 143.668 13.1606C144.818 13.1606 145.701 13.4619 146.314 14.0645C146.927 14.6671 147.235 15.4992 147.235 16.5538V25.6686H150.831V15.7902C150.831 14.5815 150.56 13.5269 150.023 12.6196C149.482 11.7156 148.732 11.0171 147.77 10.5275Z" fill="white"/>
<path d="M160.874 21.7681L155.977 10.1641H152.07L159.062 25.5311L158.809 26.1269C158.562 26.6919 158.213 27.1267 157.761 27.428C157.309 27.7293 156.809 27.88 156.261 27.88C155.487 27.88 154.59 27.6643 153.573 27.2294L152.584 30.1741C153.132 30.4583 153.755 30.674 154.453 30.8247C155.152 30.9753 155.803 31.0507 156.405 31.0507C157.631 31.0507 158.713 30.7288 159.644 30.0885C160.579 29.4482 161.308 28.5203 161.839 27.315L169.423 10.1641H165.688L160.874 21.7681Z" fill="white"/>
<path d="M184.914 22.5C184.698 22.3117 184.589 22.0206 184.589 21.6234V16.0491C184.589 14.0871 183.949 12.5566 182.665 11.4643C181.381 10.3686 179.607 9.82422 177.344 9.82422C176.118 9.82422 174.909 9.98856 173.721 10.3207C172.533 10.6528 171.495 11.1664 170.608 11.8615L172.42 14.522C173.135 13.9947 173.916 13.6009 174.755 13.3475C175.594 13.0942 176.402 12.9641 177.176 12.9641C178.364 12.9641 179.309 13.2414 180.007 13.7995C180.706 14.3576 181.062 15.1349 181.083 16.1347H178.083C175.289 16.1347 173.153 16.5867 171.673 17.494C170.191 18.398 169.451 19.6649 169.451 21.2879C169.451 22.2877 169.735 23.1471 170.3 23.8628C170.865 24.5784 171.625 25.1194 172.577 25.4755C173.529 25.835 174.563 26.013 175.676 26.013C176.902 26.013 178.008 25.8144 178.987 25.4173C179.966 25.0201 180.771 24.3901 181.394 23.5204C181.62 24.2736 182.069 24.842 182.74 25.2187C183.408 25.5953 184.168 25.7836 185.017 25.7836C185.64 25.7836 186.13 25.698 186.489 25.5303V22.6712C186.28 22.7465 186.047 22.7842 185.78 22.7842C185.421 22.7842 185.133 22.6917 184.914 22.5ZM179.425 22.048C178.453 22.726 177.316 23.0684 176.015 23.0684C175.091 23.0684 174.368 22.8835 173.851 22.5171C173.331 22.1507 173.074 21.6816 173.074 21.1167C173.074 20.4387 173.464 19.884 174.248 19.4629C175.032 19.0383 176.337 18.826 178.169 18.826H181.055C180.939 20.2949 180.398 21.37 179.425 22.048Z" fill="white"/>
<path d="M202.828 22.5C202.612 22.3117 202.503 22.0206 202.503 21.6234V16.0491C202.503 14.0871 201.863 12.5566 200.579 11.4643C199.295 10.3686 197.521 9.82422 195.258 9.82422C194.032 9.82422 192.823 9.98856 191.635 10.3207C190.447 10.6528 189.409 11.1664 188.523 11.8615L190.334 14.522C191.049 13.9947 191.83 13.6009 192.669 13.3475C193.508 13.0942 194.316 12.9641 195.09 12.9641C196.278 12.9641 197.223 13.2414 197.922 13.7995C198.62 14.3576 198.98 15.1349 198.997 16.1347H195.997C193.203 16.1347 191.067 16.5867 189.587 17.494C188.105 18.398 187.365 19.6649 187.365 21.2879C187.365 22.2877 187.649 23.1471 188.214 23.8628C188.779 24.5784 189.539 25.1194 190.491 25.4755C191.443 25.835 192.477 26.013 193.59 26.013C194.816 26.013 195.922 25.8144 196.901 25.4173C197.88 25.0201 198.685 24.3901 199.308 23.5204C199.534 24.2736 199.983 24.842 200.654 25.2187C201.322 25.5953 202.082 25.7836 202.931 25.7836C203.554 25.7836 204.044 25.698 204.403 25.5303V22.6712C204.194 22.7465 203.962 22.7842 203.694 22.7842C203.335 22.7842 203.047 22.6917 202.828 22.5ZM197.339 22.048C196.367 22.726 195.23 23.0684 193.929 23.0684C193.005 23.0684 192.282 22.8835 191.765 22.5171C191.245 22.1507 190.988 21.6816 190.988 21.1167C190.988 20.4387 191.378 19.884 192.162 19.4629C192.946 19.0383 194.251 18.826 196.083 18.826H198.969C198.853 20.2949 198.312 21.37 197.339 22.048Z" fill="white"/>
<path d="M212.084 10.5176C211.169 10.9046 210.437 11.514 209.889 12.3427V10.165H206.465V25.6758H210.087V17.554C210.087 16.1194 210.526 15.0579 211.402 14.3697C212.279 13.6814 213.426 13.3356 214.84 13.3356C215.367 13.3356 215.905 13.3836 216.453 13.476V10.1067C215.963 9.99376 215.453 9.93555 214.926 9.93555C213.95 9.93555 213.001 10.1307 212.084 10.5176Z" fill="white"/>
<path d="M220.703 8.29458C221.343 8.29458 221.874 8.09599 222.288 7.6988C222.702 7.30162 222.911 6.79486 222.911 6.17169C222.911 5.56906 222.702 5.06915 222.288 4.67196C221.874 4.27477 221.343 4.07617 220.703 4.07617C220.062 4.07617 219.532 4.27477 219.117 4.67196C218.703 5.06915 218.494 5.56906 218.494 6.17169C218.494 6.79486 218.703 7.30504 219.117 7.6988C219.535 8.09599 220.062 8.29458 220.703 8.29458Z" fill="white"/>
<path d="M222.512 10.1641H218.89V25.6749H222.512V10.1641Z" fill="white"/>
</svg>
